<svg width="31" height="31" viewBox="0 0 31 31" fill="none" xmlns="http://www.w3.org/2000/svg">
  <path d="M19.2551 7.91318C19.2551 6.53818 17.7426 5.26318 15.8676 5.26318H15.4676C13.5926 5.26318 12.0801 6.53818 12.0801 7.91318" stroke="currentColor" stroke-width="1.5" stroke-linecap="round" stroke-linejoin="round"/>
  <path d="M19.2551 14.7632V17.5507C19.2551 18.9257 17.7426 20.0382 15.8676 20.0382H15.4676C13.5926 20.0382 12.0801 18.9257 12.0801 17.5507V14.7632" stroke="currentColor" stroke-width="1.5" stroke-linecap="round" stroke-linejoin="round"/>
  <path d="M23.7426 25.5381H7.59263C7.13013 25.5381 6.75513 25.1506 6.79263 24.7006L7.94263 11.2506C7.98013 10.8506 8.31763 10.5381 8.74263 10.5381H22.5926C23.0051 10.5381 23.3551 10.8506 23.3926 11.2506L24.5426 24.7006C24.5801 25.1506 24.2176 25.5381 23.7426 25.5381Z" stroke="currentColor" stroke-width="1.5" stroke-linecap="round" stroke-linejoin="round"/>
</svg>
