<svg width="31" height="31" viewBox="0 0 31 31" fill="none" xmlns="http://www.w3.org/2000/svg">
  <path d="M20.2083 10.5463C20.2083 9.00469 18.9651 7.5625 17.4483 7.5625H17.1126C15.5834 7.5625 14.3525 9.00469 14.3525 10.5463" stroke="currentColor" stroke-width="1.5" stroke-linecap="round" stroke-linejoin="round"/>
  <path d="M20.2083 16.5015V18.7766C20.2083 19.8956 18.9775 20.8156 17.4483 20.8156H17.1126C15.5834 20.8156 14.3525 19.908 14.3525 18.7766V16.5015" stroke="currentColor" stroke-width="1.5" stroke-linecap="round" stroke-linejoin="round"/>
  <path d="M23.8634 25.2916H10.6848C10.2994 25.2916 10.001 24.9808 10.0383 24.6078L10.9708 13.6297C10.9956 13.3065 11.2816 13.0454 11.6173 13.0454H22.931C23.2667 13.0454 23.5526 13.2941 23.5775 13.6297L24.5099 24.6078C24.5472 24.9808 24.2364 25.2916 23.8634 25.2916Z" stroke="currentColor" stroke-width="1.5" stroke-linecap="round" stroke-linejoin="round"/>
  <path d="M6.17188 8.01028L8.13624 10.3103L12.0401 5.23779" stroke="currentColor" stroke-width="1.5" stroke-linecap="round" stroke-linejoin="round"/>
</svg>
