<svg width="31" height="31" viewBox="0 0 31 31" fill="none" xmlns="http://www.w3.org/2000/svg">
  <path d="M21.0169 9.97017C21.0169 8.42852 19.7736 6.98633 18.2569 6.98633H17.9212C16.392 6.98633 15.1611 8.42852 15.1611 9.97017" stroke="currentColor" stroke-width="1.5" stroke-linecap="round" stroke-linejoin="round"/>
  <path d="M21.0169 15.9258V18.201C21.0169 19.3199 19.7861 20.2399 18.2569 20.2399H17.9212C16.392 20.2399 15.1611 19.3323 15.1611 18.201V15.9258" stroke="currentColor" stroke-width="1.5" stroke-linecap="round" stroke-linejoin="round"/>
  <path d="M24.672 24.7149H11.4934C11.108 24.7149 10.8096 24.4041 10.8469 24.0311L11.7794 13.0531C11.8042 12.7298 12.0902 12.4688 12.4259 12.4688H23.7396C24.0753 12.4688 24.3612 12.7174 24.3861 13.0531L25.3185 24.0311C25.3558 24.4041 25.045 24.7149 24.672 24.7149Z" stroke="currentColor" stroke-width="1.5" stroke-linecap="round" stroke-linejoin="round"/>
  <path d="M8.39746 5.19629V10.9402" stroke="currentColor" stroke-width="1.5" stroke-linecap="round" stroke-linejoin="round"/>
  <path d="M11.2693 8.06836H5.52539" stroke="currentColor" stroke-width="1.5" stroke-linecap="round" stroke-linejoin="round"/>
</svg>
