<svg width="31" height="31" viewBox="0 0 31 31" fill="none" xmlns="http://www.w3.org/2000/svg">
  <path d="M22.9079 6.63135H7.91416C7.22753 6.63135 6.6709 7.18798 6.6709 7.87461V23.5646C6.6709 24.2513 7.22753 24.8079 7.91416 24.8079H22.9079C23.5946 24.8079 24.1512 24.2513 24.1512 23.5646V7.87461C24.1512 7.18798 23.5946 6.63135 22.9079 6.63135Z" stroke="currentColor" stroke-width="1.5" stroke-linecap="round" stroke-linejoin="round"/>
  <path d="M10.3877 5.10205V6.0345" stroke="currentColor" stroke-width="1.5" stroke-linecap="round" stroke-linejoin="round"/>
  <path d="M20.8193 5.10205V6.0345" stroke="currentColor" stroke-width="1.5" stroke-linecap="round" stroke-linejoin="round"/>
  <path d="M6.6709 10.0752H24.1388" stroke="currentColor" stroke-width="1.5" stroke-linecap="round" stroke-linejoin="round"/>
  <path d="M12.3397 12.7729H11.2208C10.5342 12.7729 9.97754 13.3296 9.97754 14.0162V15.1352C9.97754 15.8218 10.5342 16.3784 11.2208 16.3784H12.3397C13.0264 16.3784 13.583 15.8218 13.583 15.1352V14.0162C13.583 13.3296 13.0264 12.7729 12.3397 12.7729Z" fill="currentColor"/>
  <path d="M19.5878 12.7729H18.4689C17.7822 12.7729 17.2256 13.3296 17.2256 14.0162V15.1352C17.2256 15.8218 17.7822 16.3784 18.4689 16.3784H19.5878C20.2744 16.3784 20.8311 15.8218 20.8311 15.1352V14.0162C20.8311 13.3296 20.2744 12.7729 19.5878 12.7729Z" stroke="currentColor" stroke-width="1.5" stroke-linecap="round" stroke-linejoin="round"/>
  <path d="M19.5878 19.0889H18.4689C17.7822 19.0889 17.2256 19.6455 17.2256 20.3321V21.4511C17.2256 22.1377 17.7822 22.6943 18.4689 22.6943H19.5878C20.2744 22.6943 20.8311 22.1377 20.8311 21.4511V20.3321C20.8311 19.6455 20.2744 19.0889 19.5878 19.0889Z" fill="currentColor"/>
  <path d="M12.3397 19.0889H11.2208C10.5342 19.0889 9.97754 19.6455 9.97754 20.3321V21.4511C9.97754 22.1377 10.5342 22.6943 11.2208 22.6943H12.3397C13.0264 22.6943 13.583 22.1377 13.583 21.4511V20.3321C13.583 19.6455 13.0264 19.0889 12.3397 19.0889Z" fill="currentColor"/>
</svg>
