<svg width="31" height="31" viewBox="0 0 31 31" fill="none" xmlns="http://www.w3.org/2000/svg">
  <path d="M23.3684 16.2632H12.7434L10.9434 8.01318H25.2434L23.3684 16.2632Z" stroke="currentColor" stroke-width="1.5" stroke-linecap="round" stroke-linejoin="round"/>
  <path d="M20.968 26.3007C21.9966 26.3007 22.8305 25.4668 22.8305 24.4382C22.8305 23.4096 21.9966 22.5757 20.968 22.5757C19.9393 22.5757 19.1055 23.4096 19.1055 24.4382C19.1055 25.4668 19.9393 26.3007 20.968 26.3007Z" stroke="currentColor" stroke-width="1.5" stroke-linecap="round" stroke-linejoin="round"/>
  <path d="M12.1936 26.163C13.2222 26.163 14.0561 25.3291 14.0561 24.3005C14.0561 23.2719 13.2222 22.438 12.1936 22.438C11.1649 22.438 10.3311 23.2719 10.3311 24.3005C10.3311 25.3291 11.1649 26.163 12.1936 26.163Z" stroke="currentColor" stroke-width="1.5" stroke-linecap="round" stroke-linejoin="round"/>
  <path d="M23.0307 19.9883H10.3307L7.38066 6.67578H5.86816" stroke="currentColor" stroke-width="1.5" stroke-linecap="round" stroke-linejoin="round"/>
</svg>
