<svg width="31" height="31" viewBox="0 0 31 31" fill="none" xmlns="http://www.w3.org/2000/svg">
  <path d="M21.918 3.65332H9.41797C8.72761 3.65332 8.16797 4.21296 8.16797 4.90332V25.6658C8.16797 26.3562 8.72761 26.9158 9.41797 26.9158H21.918C22.6083 26.9158 23.168 26.3562 23.168 25.6658V4.90332C23.168 4.21296 22.6083 3.65332 21.918 3.65332Z" stroke="currentColor" stroke-width="1.5" stroke-linecap="round" stroke-linejoin="round"/>
  <path d="M15.668 23.8535C16.1857 23.8535 16.6055 23.4338 16.6055 22.916C16.6055 22.3982 16.1857 21.9785 15.668 21.9785C15.1502 21.9785 14.7305 22.3982 14.7305 22.916C14.7305 23.4338 15.1502 23.8535 15.668 23.8535Z" stroke="currentColor" stroke-width="1.5" stroke-linecap="round" stroke-linejoin="round"/>
  <path d="M13.0684 6.67822H18.2684" stroke="currentColor" stroke-width="1.5" stroke-linecap="round" stroke-linejoin="round"/>
</svg>
