<svg width="31" height="31" viewBox="0 0 31 31" fill="none" xmlns="http://www.w3.org/2000/svg">
  <path d="M9.10527 6.02832H7.90527C7.21777 6.02832 6.65527 6.59082 6.65527 7.27832V25.6408C6.65527 26.3283 7.21777 26.8908 7.90527 26.8908H23.4428C24.1303 26.8908 24.6928 26.3283 24.6928 25.6408V7.27832C24.6928 6.65332 24.2303 6.12832 23.6303 6.04082C23.5678 6.04082 22.3053 6.02832 22.2428 6.02832" stroke="currentColor" stroke-width="1.5" stroke-linecap="round" stroke-linejoin="round"/>
  <path d="M20.9805 4.22852H10.3555C9.66511 4.22852 9.10547 4.78816 9.10547 5.47852V6.56602C9.10547 7.25637 9.66511 7.81602 10.3555 7.81602H20.9805C21.6708 7.81602 22.2305 7.25637 22.2305 6.56602V5.47852C22.2305 4.78816 21.6708 4.22852 20.9805 4.22852Z" stroke="currentColor" stroke-width="1.5" stroke-linecap="round" stroke-linejoin="round"/>
  <path d="M10.4551 12.4531H21.0426" stroke="currentColor" stroke-width="1.5" stroke-linecap="round" stroke-linejoin="round"/>
  <path d="M10.4551 16.4658H21.0426" stroke="currentColor" stroke-width="1.5" stroke-linecap="round" stroke-linejoin="round"/>
  <path d="M10.4551 20.666H21.0426" stroke="currentColor" stroke-width="1.5" stroke-linecap="round" stroke-linejoin="round"/>
</svg>
