<svg width="31" height="31" viewBox="0 0 31 31" fill="none" xmlns="http://www.w3.org/2000/svg">
  <path d="M25.8182 15.7482C25.8182 14.7107 26.6557 13.8732 27.6932 13.8732V9.44824H4.61816V13.6857C5.65566 13.6857 6.49316 14.5232 6.49316 15.5607C6.49316 16.5982 5.65566 17.4482 4.61816 17.4482V21.6857H27.6932V17.6357C26.6557 17.6357 25.8182 16.7982 25.8182 15.7482Z" stroke="currentColor" stroke-width="1.5" stroke-linecap="round" stroke-linejoin="round"/>
  <path d="M11.2676 10.9111V11.9861" stroke="currentColor" stroke-width="1.5" stroke-linecap="round" stroke-linejoin="round"/>
  <path d="M11.1553 15.2607V16.3357" stroke="currentColor" stroke-width="1.5" stroke-linecap="round" stroke-linejoin="round"/>
  <path d="M11.1553 19.6113V20.6863" stroke="currentColor" stroke-width="1.5" stroke-linecap="round" stroke-linejoin="round"/>
  <path d="M17.9057 14.0488L18.4057 15.0488L19.5057 15.2113L18.7057 15.9863L18.8932 17.0863L17.9057 16.5738L16.9182 17.0863L17.1057 15.9863L16.3057 15.2113L17.4182 15.0488L17.9057 14.0488Z" stroke="currentColor" stroke-width="1.5" stroke-linecap="round" stroke-linejoin="round"/>
</svg>
