<svg width="31" height="31" viewBox="0 0 31 31" fill="none" xmlns="http://www.w3.org/2000/svg">
  <path d="M26.0678 5.95312H5.40527C4.71492 5.95312 4.15527 6.51277 4.15527 7.20313V22.7906C4.15527 23.481 4.71492 24.0406 5.40527 24.0406H26.0678C26.7581 24.0406 27.3178 23.481 27.3178 22.7906V7.20313C27.3178 6.51277 26.7581 5.95312 26.0678 5.95312Z" stroke="currentColor" stroke-width="1.5" stroke-linecap="round" stroke-linejoin="round"/>
  <path d="M28.1684 10.2285H3.19336V12.1035H28.1684V10.2285Z" fill="currentColor"/>
  <path d="M10.1676 16.8657H8.83008C8.13972 16.8657 7.58008 17.4254 7.58008 18.1157V19.1407C7.58008 19.8311 8.13972 20.3907 8.83008 20.3907H10.1676C10.8579 20.3907 11.4176 19.8311 11.4176 19.1407V18.1157C11.4176 17.4254 10.8579 16.8657 10.1676 16.8657Z" stroke="currentColor" stroke-width="1.5" stroke-linecap="round" stroke-linejoin="round"/>
</svg>
