<svg width="31" height="31" viewBox="0 0 31 31" fill="none" xmlns="http://www.w3.org/2000/svg">
  <path d="M15.5683 23.8757C9.35575 23.9882 8.69325 21.0757 9.23075 17.0132C9.50575 14.9007 10.3058 12.9757 11.5433 11.6507C11.8808 9.68818 13.5933 8.20068 15.6433 8.20068C17.6933 8.20068 19.2683 9.57568 19.6933 11.4132C20.6933 12.5382 21.3557 14.3257 21.7807 17.0257C22.4057 21.0507 21.8308 23.7632 15.5683 23.8757Z" stroke="currentColor" stroke-width="1.5" stroke-linecap="round" stroke-linejoin="round"/>
  <path d="M11.1438 9.38824C10.7063 7.65074 5.91879 12.8632 6.28129 14.6132C6.49379 15.6632 9.11879 16.9882 9.40629 16.0382C9.91879 14.3257 11.6063 11.1882 11.1438 9.38824Z" stroke="currentColor" stroke-width="1.5" stroke-linecap="round" stroke-linejoin="round"/>
  <path d="M20.3186 9.67535C20.7561 7.93785 25.5436 13.1503 25.1811 14.9003C24.9686 15.9503 22.3436 17.2753 22.0561 16.3253C21.5436 14.6128 19.8561 11.4753 20.3186 9.67535Z" stroke="currentColor" stroke-width="1.5" stroke-linecap="round" stroke-linejoin="round"/>
  <path d="M18.7061 13.813C18.7061 13.1255 18.1436 12.563 17.4561 12.563C16.7686 12.563 16.2061 13.1255 16.2061 13.813C16.2061 14.5005 16.3186 15.063 17.0061 15.063C17.6936 15.063 18.7061 14.5005 18.7061 13.813Z" fill="currentColor"/>
  <path d="M12.3057 13.813C12.3057 13.1255 12.8682 12.563 13.5557 12.563C14.2432 12.563 14.8057 13.1255 14.8057 13.813C14.8057 14.5005 14.6932 15.063 14.0057 15.063C13.3182 15.063 12.3057 14.5005 12.3057 13.813Z" fill="currentColor"/>
  <path d="M15.0555 20.0004C15.3805 20.0004 15.843 19.9754 16.143 20.0004C17.518 20.1129 18.043 17.0129 17.4555 16.6504C16.2055 15.8504 14.068 16.2754 13.5805 16.7879C13.2305 17.1754 13.5055 20.0629 15.0555 20.0004Z" fill="currentColor"/>
  <path d="M15.543 18.2632V23.5632" stroke="currentColor" stroke-width="1.5"/>
</svg>
