<svg width="31" height="31" viewBox="0 0 31 31" fill="none" xmlns="http://www.w3.org/2000/svg">
  <path d="M20.5963 10.0064C20.5963 10.8394 20.5839 12.8162 19.6888 12.9032C19.6888 12.9032 15.1633 11.2372 19.6515 7.38309C22.7223 4.74737 24.0526 8.92474 24.0526 8.92474C24.0526 8.92474 24.3759 8.88744 26.1289 8.92474C27.5835 8.94961 27.1857 10.7523 25.7559 11.9707C25.3083 12.3437 23.6796 12.207 23.1948 12.207L23.0331 17.9757C23.0331 17.9757 22.884 19.6914 21.2926 20.512C20.8823 20.7233 21.1807 23.5331 21.1807 23.5331C21.1807 23.5331 23.0456 23.6077 22.9834 25.8332H9.89183C9.89183 25.8332 6.23663 24.2045 7.95233 23.3342C10.5259 22.0288 12.1546 24.851 12.1546 24.851L12.1919 19.6666C12.1919 19.6666 12.7389 16.5833 14.8649 15.4022C18.8309 13.214 18.259 11.9334 18.259 11.9334" stroke="currentColor" stroke-width="1.5" stroke-linecap="round" stroke-linejoin="round"/>
  <path d="M14.3311 20.1265C15.4251 20.1513 17.3398 20.9222 16.6933 23.1973C16.6435 23.3838 19.1922 22.986 19.1922 25.8455" stroke="currentColor" stroke-width="1.3" stroke-linecap="round" stroke-linejoin="round"/>
  <path d="M18.7695 20.6235V24.2041" stroke="currentColor" stroke-width="1.3" stroke-linecap="round" stroke-linejoin="round"/>
  <path d="M23.1325 13.8974C23.1325 13.8974 22.5482 17.7018 17.6994 13.6239C14.7404 11.1374 13.2734 8.12866 11.1598 8.70057C9.04629 9.27247 7.16896 9.47139 7.49221 7.71839C7.81546 5.96538 9.41927 5.56754 10.3269 5.69186C10.9112 5.76646 12.3907 6.36323 11.9182 8.0665C11.9182 8.0665 8.22574 13.2261 4.71973 12.4801" stroke="currentColor" stroke-width="1.5" stroke-linecap="square" stroke-linejoin="round"/>
</svg>
