<svg width="31" height="31" viewBox="0 0 31 31" fill="none" xmlns="http://www.w3.org/2000/svg">
  <path d="M24.4438 11.9927C24.4438 11.9927 24.4187 11.9927 24.4062 11.9927" stroke="currentColor" stroke-width="1.5" stroke-linecap="round" stroke-linejoin="round"/>
  <path d="M6.05625 11.8931H6.03125" stroke="currentColor" stroke-width="1.5" stroke-linecap="round" stroke-linejoin="round"/>
  <path d="M25.1937 10.6804L24.5812 11.7429C24.5312 11.8304 24.4687 11.9054 24.3937 11.9804C24.0312 12.3804 23.4062 12.4804 22.9187 12.1929L15.2562 7.78042L7.60619 12.1929C7.06869 12.5054 6.4062 12.3679 6.0562 11.9054C6.0062 11.8554 5.96869 11.8054 5.94369 11.7554L5.3312 10.6929C4.9937 10.1179 5.1812 9.36792 5.7687 9.03042L11.8437 5.30542C13.4687 4.26792 13.6937 3.96792 15.2187 4.01792C16.8187 4.08042 16.7062 4.44292 18.4062 5.36792L24.7312 9.01792C25.3187 9.34292 25.5187 10.1054 25.1812 10.6804H25.1937Z" stroke="currentColor" stroke-width="1.5" stroke-linecap="round" stroke-linejoin="round"/>
  <path d="M15.1565 27.4806C9.84396 27.5806 9.28146 25.0931 9.74396 21.6181C9.98146 19.8181 10.6565 18.1681 11.719 17.0306C12.0065 15.3556 13.469 14.0806 15.219 14.0806C16.969 14.0806 18.319 15.2556 18.6815 16.8306C19.5315 17.7931 20.1065 19.3181 20.469 21.6306C21.0065 25.0681 20.5065 27.3931 15.1565 27.4806Z" stroke="currentColor" stroke-width="1.5" stroke-linecap="round" stroke-linejoin="round"/>
  <path d="M11.3687 15.093C10.9937 13.618 6.90615 18.0555 7.20615 19.5555C7.39365 20.4555 9.63115 21.5805 9.86865 20.7805C10.3062 19.318 11.7562 16.643 11.3562 15.093H11.3687Z" stroke="currentColor" stroke-width="1.5" stroke-linecap="round" stroke-linejoin="round"/>
  <path d="M19.2059 15.343C19.5809 13.868 23.6684 18.3055 23.3684 19.8055C23.1809 20.7055 20.9434 21.8305 20.7059 21.0305C20.2684 19.568 18.8184 16.893 19.2184 15.343H19.2059Z" stroke="currentColor" stroke-width="1.5" stroke-linecap="round" stroke-linejoin="round"/>
  <path d="M17.8311 18.8804C17.8311 18.2929 17.3561 17.8179 16.7686 17.8179C16.1811 17.8179 15.7061 18.2929 15.7061 18.8804C15.7061 19.4679 15.8061 19.9429 16.3936 19.9429C16.9811 19.9429 17.8436 19.4679 17.8436 18.8804H17.8311Z" fill="currentColor"/>
  <path d="M12.3689 18.8804C12.3689 18.2929 12.8439 17.8179 13.4314 17.8179C14.0189 17.8179 14.4939 18.2929 14.4939 18.8804C14.4939 19.4679 14.3939 19.9429 13.8064 19.9429C13.2189 19.9429 12.3564 19.4679 12.3564 18.8804H12.3689Z" fill="currentColor"/>
  <path d="M14.719 24.168C14.994 24.168 15.394 24.143 15.644 24.168C16.819 24.268 17.269 21.618 16.769 21.3055C15.694 20.618 13.869 20.9805 13.4565 21.4305C13.1565 21.7555 13.394 24.2305 14.719 24.1805V24.168Z" fill="currentColor"/>
  <path d="M15.1309 22.6929V27.2054" stroke="currentColor" stroke-width="1.5"/>
</svg>
