<svg width="31" height="31" viewBox="0 0 31 31" fill="none" xmlns="http://www.w3.org/2000/svg">
  <path d="M9.54297 24.5054C10.5785 24.5054 11.418 23.6659 11.418 22.6304C11.418 21.5948 10.5785 20.7554 9.54297 20.7554C8.50743 20.7554 7.66797 21.5948 7.66797 22.6304C7.66797 23.6659 8.50743 24.5054 9.54297 24.5054Z" stroke="currentColor" stroke-width="1.5" stroke-linecap="round" stroke-linejoin="round"/>
  <path d="M11.4307 22.6302L26.2057 22.6177" stroke="currentColor" stroke-width="1.5" stroke-linecap="round" stroke-linejoin="round"/>
  <path d="M5.56738 22.6304H7.66738" stroke="currentColor" stroke-width="1.5" stroke-linecap="round" stroke-linejoin="round"/>
  <path d="M15.3428 17.0181C16.3783 17.0181 17.2178 16.1786 17.2178 15.1431C17.2178 14.1075 16.3783 13.2681 15.3428 13.2681C14.3072 13.2681 13.4678 14.1075 13.4678 15.1431C13.4678 16.1786 14.3072 17.0181 15.3428 17.0181Z" stroke="currentColor" stroke-width="1.5" stroke-linecap="round" stroke-linejoin="round"/>
  <path d="M17.2305 15.1429L26.2055 15.1304" stroke="currentColor" stroke-width="1.5" stroke-linecap="round" stroke-linejoin="round"/>
  <path d="M5.59277 15.1304L13.4678 15.1429" stroke="currentColor" stroke-width="1.5" stroke-linecap="round" stroke-linejoin="round"/>
  <path d="M23.0801 8.18066H26.2676" stroke="currentColor" stroke-width="1.5" stroke-linecap="round" stroke-linejoin="round"/>
  <path d="M5.53027 8.18066H19.3178" stroke="currentColor" stroke-width="1.5" stroke-linecap="round" stroke-linejoin="round"/>
  <path d="M21.2051 10.1807C22.2406 10.1807 23.0801 9.3412 23.0801 8.30566C23.0801 7.27013 22.2406 6.43066 21.2051 6.43066C20.1695 6.43066 19.3301 7.27013 19.3301 8.30566C19.3301 9.3412 20.1695 10.1807 21.2051 10.1807Z" stroke="currentColor" stroke-width="1.5" stroke-linecap="round" stroke-linejoin="round"/>
</svg>
