<svg width="31" height="31" viewBox="0 0 31 31" fill="none" xmlns="http://www.w3.org/2000/svg">
  <path d="M23.9902 13.5508C23.9902 8.76424 20.3101 4.88525 15.7847 4.88525C11.2592 4.88525 7.5791 8.76424 7.5791 13.5508" stroke="currentColor" stroke-width="1.5" stroke-linecap="round" stroke-linejoin="round"/>
  <path d="M23.9908 20.4512C22.3248 25.2377 22.0637 24.6783 17.6377 24.6783" stroke="currentColor" stroke-width="1.5" stroke-linecap="round" stroke-linejoin="round"/>
  <path d="M7.86511 13.8616H8.33755C8.94675 13.8616 9.44406 14.3589 9.44406 14.9681V18.4865C9.44406 19.0957 8.94675 19.593 8.33755 19.593H7.86511C6.28616 19.593 4.99316 18.3124 4.99316 16.7211C4.99316 15.1421 6.27373 13.8491 7.86511 13.8491V13.8616Z" stroke="currentColor" stroke-width="1.5" stroke-linecap="round" stroke-linejoin="round"/>
  <path d="M23.7423 19.6055H23.2823C22.6731 19.6055 22.1758 19.1082 22.1758 18.499V14.993C22.1758 14.3838 22.6731 13.8865 23.2823 13.8865H23.7423C25.3213 13.8865 26.6143 15.167 26.6143 16.7584C26.6143 18.3374 25.3337 19.6304 23.7423 19.6304V19.6055Z" stroke="currentColor" stroke-width="1.5" stroke-linecap="round" stroke-linejoin="round"/>
  <path d="M15.7848 26.3318C16.8148 26.3318 17.6497 25.4969 17.6497 24.4669C17.6497 23.437 16.8148 22.6021 15.7848 22.6021C14.7549 22.6021 13.9199 23.437 13.9199 24.4669C13.9199 25.4969 14.7549 26.3318 15.7848 26.3318Z" stroke="currentColor" stroke-width="1.5" stroke-linecap="round" stroke-linejoin="round"/>
</svg>
