<svg width="31" height="31" viewBox="0 0 31 31" fill="none" xmlns="http://www.w3.org/2000/svg">
  <path d="M23.5187 6.31787H7.03125C6.34089 6.31787 5.78125 6.87752 5.78125 7.56787V24.0554C5.78125 24.7457 6.34089 25.3054 7.03125 25.3054H23.5187C24.2091 25.3054 24.7687 24.7457 24.7687 24.0554V7.56787C24.7687 6.87752 24.2091 6.31787 23.5187 6.31787Z" stroke="currentColor" stroke-width="1.5" stroke-linecap="round" stroke-linejoin="round"/>
  <path d="M19.2314 13.0928C20.3015 13.0928 21.1689 12.2253 21.1689 11.1553C21.1689 10.0852 20.3015 9.21777 19.2314 9.21777C18.1614 9.21777 17.2939 10.0852 17.2939 11.1553C17.2939 12.2253 18.1614 13.0928 19.2314 13.0928Z" stroke="currentColor" stroke-width="1.5" stroke-linecap="round" stroke-linejoin="round"/>
  <path d="M24.5312 20.5178L19.9937 16.7178L16.8062 19.3803L10.4188 13.0928L5.78125 17.7428" stroke="currentColor" stroke-width="1.5" stroke-linecap="round" stroke-linejoin="round"/>
</svg>
