<svg width="31" height="31" viewBox="0 0 31 31" fill="none" xmlns="http://www.w3.org/2000/svg">
  <path d="M8.28516 10.2988H25.579" stroke="currentColor" stroke-width="1.5" stroke-linecap="round" stroke-linejoin="round"/>
  <path d="M8.28516 15.272H25.579" stroke="currentColor" stroke-width="1.5" stroke-linecap="round" stroke-linejoin="round"/>
  <path d="M8.28516 20.2451H25.579" stroke="currentColor" stroke-width="1.5" stroke-linecap="round" stroke-linejoin="round"/>
  <path d="M5.15205 10.5976C5.26191 10.5976 5.35097 10.5085 5.35097 10.3986C5.35097 10.2888 5.26191 10.1997 5.15205 10.1997C5.04219 10.1997 4.95312 10.2888 4.95312 10.3986C4.95312 10.5085 5.04219 10.5976 5.15205 10.5976Z" stroke="currentColor" stroke-width="1.5" stroke-linecap="round" stroke-linejoin="round"/>
  <path d="M5.15205 20.5434C5.26191 20.5434 5.35097 20.4543 5.35097 20.3444C5.35097 20.2346 5.26191 20.1455 5.15205 20.1455C5.04219 20.1455 4.95312 20.2346 4.95312 20.3444C4.95312 20.4543 5.04219 20.5434 5.15205 20.5434Z" stroke="currentColor" stroke-width="1.5" stroke-linecap="round" stroke-linejoin="round"/>
  <path d="M5.15205 15.5707C5.26191 15.5707 5.35097 15.4816 5.35097 15.3718C5.35097 15.2619 5.26191 15.1729 5.15205 15.1729C5.04219 15.1729 4.95312 15.2619 4.95312 15.3718C4.95312 15.4816 5.04219 15.5707 5.15205 15.5707Z" stroke="currentColor" stroke-width="1.5" stroke-linecap="round" stroke-linejoin="round"/>
</svg>
