<svg width="31" height="31" viewBox="0 0 31 31" fill="none" xmlns="http://www.w3.org/2000/svg">
  <path d="M21.1544 11.5978C21.1544 8.21614 18.4192 5.48096 15.0375 5.48096C11.6558 5.48096 8.9082 8.22857 8.9082 11.5978C8.9082 12.4681 9.09469 13.3135 9.43037 14.0719L9.46767 14.1341L13.8937 24.6521C14.2791 25.5846 15.5845 25.597 15.9948 24.677L20.6571 14.0719C20.9927 13.3135 21.1792 12.4805 21.1792 11.5978H21.1544Z" stroke="currentColor" stroke-width="1.5" stroke-linecap="round" stroke-linejoin="round"/>
  <path d="M15.0257 13.4254C16.09 13.4254 16.9528 12.5626 16.9528 11.4984C16.9528 10.4341 16.09 9.57129 15.0257 9.57129C13.9614 9.57129 13.0986 10.4341 13.0986 11.4984C13.0986 12.5626 13.9614 13.4254 15.0257 13.4254Z" stroke="currentColor" stroke-width="1.5" stroke-linecap="round" stroke-linejoin="round"/>
</svg>
