<svg width="31" height="31" viewBox="0 0 31 31" fill="none" xmlns="http://www.w3.org/2000/svg">
  <path d="M22.3089 11.7729H7.86214C7.16864 11.7729 6.60645 12.3351 6.60645 13.0286V23.8451C6.60645 24.5386 7.16864 25.1008 7.86214 25.1008H22.3089C23.0024 25.1008 23.5646 24.5386 23.5646 23.8451V13.0286C23.5646 12.3351 23.0024 11.7729 22.3089 11.7729Z" stroke="currentColor" stroke-width="1.5" stroke-linecap="round" stroke-linejoin="round"/>
  <path d="M14.5385 5.00977H15.3964C17.3234 5.00977 18.8899 6.57628 18.8899 8.50334V11.7731H11.0449V8.50334C11.0449 6.57628 12.6114 5.00977 14.5385 5.00977Z" stroke="currentColor" stroke-width="1.5" stroke-linecap="round" stroke-linejoin="round"/>
  <path d="M15.0988 18.412C15.4765 18.412 15.7826 18.1059 15.7826 17.7282C15.7826 17.3506 15.4765 17.0444 15.0988 17.0444C14.7212 17.0444 14.415 17.3506 14.415 17.7282C14.415 18.1059 14.7212 18.412 15.0988 18.412Z" stroke="currentColor" stroke-width="1.5" stroke-linecap="round" stroke-linejoin="round"/>
  <path d="M15.0737 20.0654C15.0874 20.0654 15.0986 19.6924 15.0986 19.2324C15.0986 18.7724 15.0874 18.3994 15.0737 18.3994C15.06 18.3994 15.0488 18.7724 15.0488 19.2324C15.0488 19.6924 15.06 20.0654 15.0737 20.0654Z" stroke="currentColor" stroke-width="1.5" stroke-linecap="round" stroke-linejoin="round"/>
</svg>
