<svg width="31" height="31" viewBox="0 0 31 31" fill="none" xmlns="http://www.w3.org/2000/svg">
  <path d="M11.4309 16.3632C14.3235 16.3632 16.6684 14.0183 16.6684 11.1257C16.6684 8.23309 14.3235 5.88818 11.4309 5.88818C8.53827 5.88818 6.19336 8.23309 6.19336 11.1257C6.19336 14.0183 8.53827 16.3632 11.4309 16.3632Z" stroke="currentColor" stroke-width="1.5" stroke-linecap="round" stroke-linejoin="round"/>
  <path d="M17.9354 16.4635L17.1752 17.2237C16.6529 17.746 16.6529 18.5929 17.1752 19.1152L21.8333 23.7733C22.3556 24.2956 23.2025 24.2956 23.7248 23.7733L24.485 23.0131C25.0073 22.4908 25.0073 21.6439 24.485 21.1216L19.8269 16.4635C19.3046 15.9412 18.4577 15.9412 17.9354 16.4635Z" stroke="currentColor" stroke-width="1.5" stroke-linecap="round" stroke-linejoin="round"/>
  <path d="M16.0059 15.3008L16.9809 16.2758" stroke="currentColor" stroke-width="1.5" stroke-linecap="round" stroke-linejoin="round"/>
  <path d="M13.7807 11.9882C13.7807 10.3882 12.4807 9.07568 10.8682 9.07568" stroke="currentColor" stroke-width="1.5" stroke-linecap="round" stroke-linejoin="round"/>
</svg>
