<svg width="31" height="31" viewBox="0 0 31 31" fill="none" xmlns="http://www.w3.org/2000/svg">
  <path d="M25.6063 6.37354H5.85625C5.19375 6.37354 4.65625 6.91104 4.65625 7.57354V18.961C4.65625 19.6235 5.19375 20.161 5.85625 20.161H17.6938L17.6687 24.186L22.5437 20.161H25.5938C26.2562 20.161 26.7937 19.6235 26.7937 18.961V7.58603C26.7937 6.92353 26.2562 6.38603 25.5938 6.38603L25.6063 6.37354Z" stroke="currentColor" stroke-width="1.5" stroke-linecap="round" stroke-linejoin="round"/>
  <path d="M10.7311 14.1232C11.2626 14.1232 11.6936 13.6923 11.6936 13.1607C11.6936 12.6292 11.2626 12.1982 10.7311 12.1982C10.1995 12.1982 9.76855 12.6292 9.76855 13.1607C9.76855 13.6923 10.1995 14.1232 10.7311 14.1232Z" fill="white" stroke="currentColor" stroke-width="1.5" stroke-linecap="round" stroke-linejoin="round"/>
  <path d="M16.2057 14.1232C16.7372 14.1232 17.1682 13.6923 17.1682 13.1607C17.1682 12.6292 16.7372 12.1982 16.2057 12.1982C15.6741 12.1982 15.2432 12.6292 15.2432 13.1607C15.2432 13.6923 15.6741 14.1232 16.2057 14.1232Z" fill="white" stroke="currentColor" stroke-width="1.5" stroke-linecap="round" stroke-linejoin="round"/>
  <path d="M21.6812 14.1232C22.2128 14.1232 22.6437 13.6923 22.6437 13.1607C22.6437 12.6292 22.2128 12.1982 21.6812 12.1982C21.1497 12.1982 20.7188 12.6292 20.7188 13.1607C20.7188 13.6923 21.1497 14.1232 21.6812 14.1232Z" fill="white" stroke="currentColor" stroke-width="1.5" stroke-linecap="round" stroke-linejoin="round"/>
</svg>
