<svg width="31" height="31" viewBox="0 0 31 31" fill="none" xmlns="http://www.w3.org/2000/svg">
  <path d="M23.5917 11.1265H5.1416" stroke="currentColor" stroke-width="1.5" stroke-linecap="round" stroke-linejoin="round"/>
  <path d="M24.7852 19.9536H5.1416" stroke="currentColor" stroke-width="1.5" stroke-linecap="round" stroke-linejoin="round"/>
  <path d="M23.1943 23.5589L25.7678 20.1896L23.1445 16.6836" stroke="currentColor" stroke-width="1.5" stroke-linecap="round" stroke-linejoin="round"/>
  <path d="M7.47894 14.4707L5.1416 11.1015L7.52867 7.60791" stroke="currentColor" stroke-width="1.5" stroke-linecap="round" stroke-linejoin="round"/>
  <path d="M15.5596 23.2732C18.3405 23.2732 20.5949 19.8555 20.5949 15.6395C20.5949 11.4236 18.3405 8.00586 15.5596 8.00586C12.7788 8.00586 10.5244 11.4236 10.5244 15.6395C10.5244 19.8555 12.7788 23.2732 15.5596 23.2732Z" fill="white" stroke="white" stroke-width="1.5" stroke-linecap="round" stroke-linejoin="round"/>
  <path fill-rule="evenodd" clip-rule="evenodd" d="M15.5477 18.9468C16.1569 18.9468 16.6666 19.4441 16.6666 20.0657V21.5452C16.6666 22.1544 16.1693 22.6641 15.5477 22.6641C14.926 22.6641 14.4287 22.1668 14.4287 21.5452V20.0657C14.4287 19.4565 14.926 18.9468 15.5477 18.9468Z" fill="currentColor"/>
  <path fill-rule="evenodd" clip-rule="evenodd" d="M15.5477 8.45361C16.1569 8.45361 16.6666 8.95092 16.6666 9.57255V11.052C16.6666 11.6612 16.1693 12.171 15.5477 12.171C14.926 12.171 14.4287 11.6737 14.4287 11.052V9.57255C14.4287 8.96335 14.926 8.45361 15.5477 8.45361Z" fill="currentColor"/>
  <path fill-rule="evenodd" clip-rule="evenodd" d="M14.6647 12.2706C14.1301 12.2706 13.6949 12.7058 13.6949 13.2404C13.6949 13.6755 13.9933 14.0734 14.4284 14.1853L17.2009 14.8815C18.6307 15.242 19.6253 16.5226 19.6253 17.9772C19.6253 19.7427 18.1955 21.1724 16.4301 21.1724H14.8014C13.5706 21.1724 12.576 20.4886 12.0165 19.5686C11.6933 19.0464 11.8673 18.3626 12.3895 18.0394C12.9117 17.7161 13.5954 17.8902 13.9187 18.4124C14.1301 18.7605 14.4533 18.947 14.8014 18.947H16.4301C16.9647 18.947 17.3998 18.5118 17.3998 17.9772C17.3998 17.5296 17.1015 17.1442 16.6663 17.0448L13.8814 16.3485C12.4641 15.988 11.457 14.7199 11.457 13.2528C11.457 11.4874 12.8868 10.0576 14.6522 10.0576H16.2809C17.5117 10.0576 18.4939 10.7414 19.0534 11.649C19.3766 12.1712 19.215 12.855 18.6928 13.1782C18.1707 13.5015 17.4869 13.3398 17.1636 12.8177C16.9523 12.4696 16.629 12.2831 16.2809 12.2831H14.6522L14.6647 12.2706Z" fill="currentColor"/>
</svg>
