<svg width="31" height="31" viewBox="0 0 31 31" fill="none" xmlns="http://www.w3.org/2000/svg">
  <path d="M9.20508 24.6582H7.48008C6.79258 24.6582 6.23008 24.0957 6.23008 23.4082L6.23008 7.2457C6.23008 6.5582 6.79258 5.9957 7.48008 5.9957H9.20508L9.20508 24.6582Z" stroke="currentColor" stroke-width="1.5" stroke-linecap="round" stroke-linejoin="round"/>
  <path d="M9.88086 9.7583H11.6309" stroke="currentColor" stroke-width="1.5" stroke-linecap="round" stroke-linejoin="round"/>
  <path d="M9.88086 13.5332H11.6309" stroke="currentColor" stroke-width="1.5" stroke-linecap="round" stroke-linejoin="round"/>
  <path d="M9.88086 17.3457H11.6309" stroke="currentColor" stroke-width="1.5" stroke-linecap="round" stroke-linejoin="round"/>
  <path d="M9.88086 20.9707H11.6309" stroke="currentColor" stroke-width="1.5" stroke-linecap="round" stroke-linejoin="round"/>
  <path d="M9.88086 24.6582H11.6309" stroke="currentColor" stroke-width="1.5" stroke-linecap="round" stroke-linejoin="round"/>
  <path d="M9.20508 6.0083H11.6301" stroke="currentColor" stroke-width="1.5" stroke-linecap="round" stroke-linejoin="round"/>
  <path d="M17.2187 24.5957C18.2888 24.5957 19.1562 23.7283 19.1562 22.6582C19.1562 21.5882 18.2888 20.7207 17.2187 20.7207C16.1487 20.7207 15.2812 21.5882 15.2812 22.6582C15.2812 23.7283 16.1487 24.5957 17.2187 24.5957Z" stroke="currentColor" stroke-width="1.5" stroke-linecap="round" stroke-linejoin="round"/>
  <path d="M19.5434 11.808L19.0184 13.3955L16.7934 8.14551C16.7184 7.98301 16.6934 7.82051 16.6934 7.64551C16.7059 7.19551 16.9809 6.78301 17.4434 6.58301L19.5434 11.808Z" stroke="currentColor" stroke-width="1.5" stroke-linecap="round" stroke-linejoin="round"/>
  <path d="M23.3682 20.3459L22.5182 21.0584L21.0557 17.7834L21.6307 16.2334L23.3682 20.3459Z" stroke="currentColor" stroke-width="1.5" stroke-linecap="round" stroke-linejoin="round"/>
  <path d="M24.3936 24.458C25.4636 24.458 26.3311 23.5906 26.3311 22.5205C26.3311 21.4505 25.4636 20.583 24.3936 20.583C23.3235 20.583 22.4561 21.4505 22.4561 22.5205C22.4561 23.5906 23.3235 24.458 24.3936 24.458Z" stroke="currentColor" stroke-width="1.5" stroke-linecap="round" stroke-linejoin="round"/>
  <path d="M16.8438 20.2081L22.1687 6.37061L22.7187 6.58311C23.7687 6.98311 24.2312 8.32061 23.7562 9.55811L19.0812 21.7081" stroke="currentColor" stroke-width="1.5" stroke-linecap="round" stroke-linejoin="round"/>
</svg>
