<svg width="31" height="31" viewBox="0 0 31 31" fill="none" xmlns="http://www.w3.org/2000/svg">
  <path d="M24.9109 9.98831H20.8703V6.23365C20.8703 5.59958 20.3605 5.08984 19.7264 5.08984H12.0679C11.4339 5.08984 10.9241 5.59958 10.9241 6.23365V9.98831H6.88351C6.23702 9.98831 5.71484 10.5105 5.71484 11.157V19.2382C5.71484 19.8847 6.23702 20.4069 6.88351 20.4069H10.9241V24.2859C10.9241 24.9199 11.4339 25.4297 12.0679 25.4297H19.7264C20.3605 25.4297 20.8703 24.9199 20.8703 24.2859V20.4069H24.9109C25.5574 20.4069 26.0795 19.8847 26.0795 19.2382V11.157C26.0795 10.5105 25.5574 9.98831 24.9109 9.98831Z" stroke="currentColor" stroke-width="1.5" stroke-linecap="round" stroke-linejoin="round"/>
  <path d="M17.2651 16.938C17.2651 16.0304 16.6186 15.2969 15.8229 15.2969C15.0272 15.2969 14.3807 16.0304 14.3807 16.938C14.3807 17.7088 14.132 18.5542 15.1391 18.5542C15.3256 18.5542 15.5867 16.6023 15.8477 16.6147C16.1834 16.6272 16.1959 18.5542 16.5067 18.5418C17.5386 18.5418 17.2526 17.7461 17.2526 16.9256L17.2651 16.938Z" fill="currentColor" stroke="currentColor" stroke-width="1.5" stroke-linecap="round" stroke-linejoin="round"/>
  <path fill-rule="evenodd" clip-rule="evenodd" d="M11.0065 14.3503C11.1295 14.1179 11.4597 13.6685 12.0679 13.6685C12.6762 13.6685 13.0063 14.1179 13.1294 14.3503C13.2745 14.6245 13.3361 14.9388 13.3361 15.235C13.3361 15.5311 13.2745 15.8455 13.1294 16.1196C13.0063 16.352 12.6762 16.8015 12.0679 16.8015C11.4597 16.8015 11.1295 16.352 11.0065 16.1196C10.8613 15.8454 10.7998 15.5311 10.7998 15.235C10.7998 14.9388 10.8613 14.6245 11.0065 14.3503Z" fill="currentColor"/>
  <path fill-rule="evenodd" clip-rule="evenodd" d="M13.2321 11.5286C13.3551 11.2961 13.6852 10.8467 14.2935 10.8467C14.9018 10.8467 15.2319 11.2961 15.355 11.5286C15.5001 11.8027 15.5617 12.1171 15.5617 12.4132C15.5617 12.7093 15.5001 13.0237 15.355 13.2978C15.2319 13.5303 14.9018 13.9797 14.2935 13.9797C13.6852 13.9797 13.3551 13.5303 13.2321 13.2978C13.0869 13.0237 13.0254 12.7093 13.0254 12.4132C13.0254 12.1171 13.0869 11.8027 13.2321 11.5286Z" fill="currentColor"/>
  <path fill-rule="evenodd" clip-rule="evenodd" d="M16.4235 11.5193C16.5465 11.2868 16.8766 10.8374 17.4849 10.8374C18.0932 10.8374 18.4233 11.2868 18.5464 11.5193C18.6915 11.7934 18.7531 12.1078 18.7531 12.4039C18.7531 12.7 18.6915 13.0144 18.5464 13.2885C18.4233 13.521 18.0932 13.9704 17.4849 13.9704C16.8766 13.9704 16.5465 13.521 16.4235 13.2885C16.2783 13.0144 16.2168 12.7 16.2168 12.4039C16.2168 12.1078 16.2783 11.7934 16.4235 11.5193Z" fill="currentColor"/>
  <path fill-rule="evenodd" clip-rule="evenodd" d="M18.6745 14.4001C18.7975 14.1677 19.1276 13.7183 19.7359 13.7183C20.3442 13.7183 20.6743 14.1677 20.7974 14.4001C20.9425 14.6743 21.004 14.9886 21.004 15.2848C21.004 15.5809 20.9425 15.8953 20.7974 16.1694C20.6743 16.4018 20.3442 16.8513 19.7359 16.8513C19.1276 16.8513 18.7975 16.4018 18.6745 16.1694C18.5293 15.8953 18.4678 15.5809 18.4678 15.2848C18.4678 14.9886 18.5293 14.6743 18.6745 14.4001Z" fill="currentColor"/>
</svg>
