<svg width="31" height="31" viewBox="0 0 31 31" fill="none" xmlns="http://www.w3.org/2000/svg">
  <path d="M22.0488 13.1986C22.0488 11.9429 21.0169 9.68015 18.9033 8.6731C18.7044 8.58607 17.2498 7.96444 15.9941 7.93958C14.9373 7.91471 13.7935 8.18823 13.433 8.32499C10.8967 9.26987 9.56641 11.6694 9.56641 11.6694" stroke="currentColor" stroke-width="1.5" stroke-linecap="round" stroke-linejoin="round"/>
  <path d="M12.624 13.199L8.53369 13.3233L6.89258 9.41943" stroke="currentColor" stroke-width="1.5" stroke-linecap="round" stroke-linejoin="round"/>
  <path d="M9.13086 18.3335C9.13086 19.5892 10.1628 21.8519 12.2763 22.859C12.4752 22.946 13.9299 23.5676 15.1856 23.5925C16.2423 23.6174 17.3861 23.3439 17.7467 23.2071C20.283 22.2622 21.6132 19.8627 21.6132 19.8627" stroke="currentColor" stroke-width="1.5" stroke-linecap="round" stroke-linejoin="round"/>
  <path d="M18.5547 18.3335L22.645 18.1968L24.2861 22.1006" stroke="currentColor" stroke-width="1.5" stroke-linecap="round" stroke-linejoin="round"/>
</svg>
