<svg width="31" height="31" viewBox="0 0 31 31" fill="none" xmlns="http://www.w3.org/2000/svg">
  <path d="M18.5098 18.9969C19.2381 19.7252 20.4188 19.7252 21.1471 18.9969C21.8754 18.2686 21.8754 17.0878 21.1471 16.3595L12.2768 7.4892C11.5485 6.76092 10.3677 6.76091 9.63944 7.4892C8.91115 8.21749 8.91115 9.39828 9.63944 10.1266L18.5098 18.9969Z" stroke="currentColor" stroke-width="1.5" stroke-linecap="round" stroke-linejoin="round"/>
  <path d="M20.9058 13.9682L21.6355 13.2385C22.2278 12.6462 22.2278 11.6858 21.6355 11.0935L17.5212 6.9792C16.9288 6.38686 15.9685 6.38686 15.3761 6.9792L14.6465 7.70887C14.0541 8.30121 14.0541 9.26158 14.6465 9.85393L18.7608 13.9682C19.3531 14.5606 20.3135 14.5606 20.9058 13.9682Z" stroke="currentColor" stroke-width="1.5" stroke-linecap="round" stroke-linejoin="round"/>
  <path d="M8.59863 23.4707V24.5275" stroke="currentColor" stroke-width="1.5" stroke-linecap="round" stroke-linejoin="round"/>
  <path d="M12.0801 21.9292V22.9984" stroke="currentColor" stroke-width="1.5" stroke-linecap="round" stroke-linejoin="round"/>
  <path d="M8.59863 13.2388V14.308" stroke="currentColor" stroke-width="1.5" stroke-linecap="round" stroke-linejoin="round"/>
  <path d="M8.59863 18.4355V19.4923" stroke="currentColor" stroke-width="1.5" stroke-linecap="round" stroke-linejoin="round"/>
  <path d="M12.0801 16.9932V18.0624" stroke="currentColor" stroke-width="1.5" stroke-linecap="round" stroke-linejoin="round"/>
  <path d="M15.499 20.7109V21.7801" stroke="currentColor" stroke-width="1.5" stroke-linecap="round" stroke-linejoin="round"/>
  <path d="M25.9297 25.5841V6.84813C25.9297 6.21407 24.9227 5.69189 24.2886 5.69189H23.6919C22.9708 5.69189 22.0259 6.46272 21.6529 6.81083L19.415 8.87465" stroke="currentColor" stroke-width="1.5" stroke-linecap="round" stroke-linejoin="round"/>
</svg>
