<svg width="31" height="31" viewBox="0 0 31 31" fill="none" xmlns="http://www.w3.org/2000/svg">
  <path d="M4.35547 18.6484H13.693" stroke="currentColor" stroke-width="1.5" stroke-linecap="round" stroke-linejoin="round"/>
  <path fill-rule="evenodd" clip-rule="evenodd" d="M6.8252 6.96094C6.41098 6.96094 6.0752 7.29672 6.0752 7.71094C6.0752 8.12515 6.41098 8.46094 6.8252 8.46094H18.4252C18.5103 8.46094 18.7127 8.55768 18.7127 8.87344V11.2984V13.1484C18.7127 13.1882 18.7158 13.2271 18.7217 13.2652L18.7381 17.6468C18.7397 18.0599 19.075 18.394 19.4881 18.394H26.5502V22.0528L23.8333 22.0235V22.0234H23.8252H22.773C22.3466 21.1503 21.4499 20.5489 20.4128 20.5489C19.3757 20.5489 18.4791 21.1503 18.0527 22.0234H15.3252H14.1353C13.7089 21.1503 12.8122 20.5489 11.7751 20.5489C10.738 20.5489 9.84142 21.1503 9.41502 22.0234H6.8252C6.41098 22.0234 6.0752 22.3592 6.0752 22.7734C6.0752 23.1877 6.41098 23.5234 6.8252 23.5234H9.17322C9.34413 24.8079 10.4439 25.7989 11.7751 25.7989C13.1064 25.7989 14.2062 24.8079 14.3771 23.5234H15.3252H17.8109C17.9818 24.8079 19.0816 25.7989 20.4128 25.7989C21.7441 25.7989 22.8439 24.8079 23.0148 23.5234H23.8212L27.2921 23.5609C27.4924 23.5631 27.6852 23.485 27.8277 23.3441C27.9701 23.2032 28.0502 23.0113 28.0502 22.8109V17.6699C28.0505 17.6613 28.0506 17.6527 28.0506 17.644C28.0506 17.6353 28.0505 17.6267 28.0502 17.618V17.2734C28.0502 17.1916 28.0368 17.1102 28.0105 17.0327L25.9855 11.0577C25.8857 10.7633 25.6148 10.561 25.3042 10.549C22.3964 10.4364 21.0605 10.4352 20.3727 10.4648C20.3152 10.4672 20.262 10.4699 20.2127 10.4728V8.87344C20.2127 7.8892 19.4901 6.96094 18.4252 6.96094H6.8252ZM26.3797 16.894L24.7307 12.0285C22.1869 11.9357 21.0206 11.9383 20.4371 11.9634C20.3513 11.9671 20.2788 11.9712 20.2169 11.9756L20.2353 16.894H26.3797ZM10.6501 23.1739C10.6501 22.5526 11.1538 22.0489 11.7751 22.0489C12.3965 22.0489 12.9001 22.5526 12.9001 23.1739C12.9001 23.7952 12.3965 24.2989 11.7751 24.2989C11.1538 24.2989 10.6501 23.7952 10.6501 23.1739ZM20.4128 22.0489C19.7915 22.0489 19.2878 22.5526 19.2878 23.1739C19.2878 23.7952 19.7915 24.2989 20.4128 24.2989C21.0342 24.2989 21.5378 23.7952 21.5378 23.1739C21.5378 22.5526 21.0342 22.0489 20.4128 22.0489Z" fill="currentColor"/>
  <path d="M4.27539 11.6484H13.6129" stroke="currentColor" stroke-width="1.5" stroke-linecap="round" stroke-linejoin="round"/>
  <path d="M4.27539 15.1484H13.6129" stroke="currentColor" stroke-width="1.5" stroke-linecap="round" stroke-linejoin="round"/>
</svg>
