<svg width="31" height="31" viewBox="0 0 31 31" fill="none" xmlns="http://www.w3.org/2000/svg">
  <path d="M16.7162 10.543H9.36621" stroke="currentColor" stroke-width="1.5" stroke-linecap="round" stroke-linejoin="round"/>
  <path d="M14.3787 14.2178H9.36621" stroke="currentColor" stroke-width="1.5" stroke-linecap="round" stroke-linejoin="round"/>
  <path d="M13.0787 17.8931H9.36621" stroke="currentColor" stroke-width="1.5" stroke-linecap="round" stroke-linejoin="round"/>
  <path d="M17.0413 14.5307L21.3038 12.3682L25.5663 14.5307C25.5663 14.5307 25.9788 19.7057 24.9788 21.4557C24.4413 22.3932 21.3288 24.0182 21.3288 24.0182C21.3288 24.0182 17.9038 22.2682 17.3788 21.3307C16.3788 19.5807 17.0413 14.5307 17.0413 14.5307Z" stroke="currentColor" stroke-width="1.2" stroke-linecap="round" stroke-linejoin="round"/>
  <path d="M20.0293 18.3429L20.9793 19.3804L23.1293 17.1929" stroke="currentColor" stroke-width="1.3" stroke-linecap="round" stroke-linejoin="round"/>
  <path d="M20.5035 9.13057V6.98057C20.5035 6.45557 20.041 6.01807 19.4785 6.01807H6.69102C6.12852 6.01807 5.66602 6.44307 5.66602 6.98057V23.5431C5.66602 24.0681 6.12852 24.5056 6.69102 24.5056H15.691" stroke="currentColor" stroke-width="1.5" stroke-linecap="round" stroke-linejoin="round"/>
</svg>
